<?xml version="1.0" encoding="utf-8"?>
<!-- Generator: Adobe Illustrator 19.1.0, SVG Export Plug-In . SVG Version: 6.00 Build 0)  -->
<svg version="1.1" id="Layer_1" xmlns="http://www.w3.org/2000/svg" xmlns:xlink="http://www.w3.org/1999/xlink" x="0px" y="0px"
	 viewBox="0 0 100 100" style="enable-background:new 0 0 100 100;" xml:space="preserve">
<path d="M50,5.9C25.6,5.9,5.9,25.6,5.9,50S25.6,94.1,50,94.1S94.1,74.4,94.1,50S74.4,5.9,50,5.9z M50,93.1
	C26.2,93.1,6.9,73.8,6.9,50C6.9,26.2,26.2,6.9,50,6.9S93.1,26.2,93.1,50C93.1,73.8,73.8,93.1,50,93.1z"/>
<path d="M58,45.3V23.2l2-2.5V19H41v1.7l2,2.5v22.1C41.2,47,23.8,63.7,20.8,66.6c-0.6,0.6-1.1,1.6-0.6,3.4c1,4.1,7.3,10,10.1,10h0.5
	h38h0.5c2.9,0,9-5.4,10.7-9.4c0.9-2.1,0.3-3.3-0.3-4C76.8,63.7,59.8,47,58,45.3z M42.5,73.5c0-2,1.6-3.5,3.5-3.5s3.5,1.6,3.5,3.5
	S48,77,46.1,77S42.5,75.5,42.5,73.5z M50.7,64.5c0-2.4,2-4.4,4.4-4.4c2.4,0,4.4,2,4.4,4.4c0,2.4-2,4.4-4.4,4.4
	C52.7,68.9,50.7,66.9,50.7,64.5z M43.8,45.9l0.2-0.1V23h11v-1H43.3L42,20.3V20h17v0.3l-2,2.5v22.9l0.2,0.1c0.1,0.1,4.6,4.4,9.5,9.3
	c-11.5-1.4-24.8,9-36.4,3.8C36.5,52.9,43.7,46,43.8,45.9z"/>
<circle cx="53.8" cy="65.8" r="1.7"/>
<circle cx="45.1" cy="74.5" r="1.4"/>
<path d="M47.1,56.2c2.6,0,4.7-2.1,4.7-4.7s-2.1-4.7-4.7-4.7s-4.7,2.1-4.7,4.7S44.5,56.2,47.1,56.2z M48.4,48.3c1,0,1.8,0.8,1.8,1.8
	c0,1-0.8,1.8-1.8,1.8c-1,0-1.8-0.8-1.8-1.8C46.6,49.2,47.4,48.3,48.4,48.3z"/>
<path d="M50.1,45.3c1.6,0,2.8-1.3,2.8-2.8c0-1.6-1.3-2.8-2.8-2.8c-1.6,0-2.8,1.3-2.8,2.8C47.3,44.1,48.5,45.3,50.1,45.3z M50.9,40.6
	c0.6,0,1.1,0.5,1.1,1.1c0,0.6-0.5,1.1-1.1,1.1c-0.6,0-1.1-0.5-1.1-1.1C49.8,41.1,50.3,40.6,50.9,40.6z"/>
</svg>
